<svg width="1920" height="1080" viewBox="0 0 1920 1080" xmlns="http://www.w3.org/2000/svg"><rect width="1920" height="1080" fill="#3f44de"/><path d="M 0,1080 C 0,1080 0,180 0,180 C 107.2076923076923,143.97435897435898 214.4153846153846,107.94871794871794 312,114 C 409.5846153846154,120.05128205128206 497.54615384615386,168.17948717948718 591,189 C 684.4538461538461,209.82051282051282 783.3999999999999,203.33333333333334 913,192 C 1042.6000000000001,180.66666666666666 1202.8538461538462,164.48717948717947 1316,166 C 1429.1461538461538,167.51282051282053 1495.1846153846152,186.7179487179487 1588,192 C 1680.8153846153848,197.2820512820513 1800.4076923076923,188.64102564102564 1920,180 C 1920,180 1920,1080 1920,1080 Z" fill="#b0afde" opacity="0.09999999999999999"/><path d="M 0,1080 C 0,1080 0,360 0,360 C 100.33333333333331,379.65128205128207 200.66666666666663,399.30256410256413 313,390 C 425.33333333333337,380.69743589743587 549.6666666666667,342.44102564102565 648,342 C 746.3333333333333,341.55897435897435 818.6666666666665,378.93333333333334 924,402 C 1029.3333333333335,425.06666666666666 1167.666666666667,433.825641025641 1299,405 C 1430.333333333333,376.174358974359 1554.6666666666665,309.7641025641026 1657,296 C 1759.3333333333335,282.2358974358974 1839.6666666666667,321.1179487179487 1920,360 C 1920,360 1920,1080 1920,1080 Z" fill="#b0afde" opacity="0.19999999999999998"/><path d="M 0,1080 C 0,1080 0,540 0,540 C 102.22051282051285,554.2615384615384 204.4410256410257,568.5230769230768 323,577 C 441.5589743589743,585.4769230769232 576.4564102564101,588.1692307692308 676,564 C 775.5435897435899,539.8307692307692 839.7333333333333,488.79999999999995 946,502 C 1052.2666666666667,515.2 1200.6102564102564,592.6307692307691 1307,597 C 1413.3897435897436,601.3692307692309 1477.825641025641,532.6769230769231 1573,511 C 1668.174358974359,489.3230769230769 1794.0871794871796,514.6615384615384 1920,540 C 1920,540 1920,1080 1920,1080 Z" fill="#b0afde" opacity="0.3"/><path d="M 0,1080 C 0,1080 0,720 0,720 C 68.65897435897435,705.5487179487179 137.3179487179487,691.097435897436 260,698 C 382.6820512820513,704.902564102564 559.3871794871795,733.1589743589744 688,731 C 816.6128205128205,728.8410256410256 897.1333333333334,696.2666666666667 999,706 C 1100.8666666666666,715.7333333333333 1224.0794871794872,767.774358974359 1318,771 C 1411.9205128205128,774.225641025641 1476.548717948718,728.6358974358974 1572,712 C 1667.451282051282,695.3641025641026 1793.725641025641,707.6820512820514 1920,720 C 1920,720 1920,1080 1920,1080 Z" fill="#b0afde" opacity="0.39999999999999997"/><path d="M 0,1080 C 0,1080 0,900 0,900 C 128.34871794871793,905.2051282051282 256.69743589743587,910.4102564102565 355,928 C 453.30256410256413,945.5897435897435 521.5589743589744,975.5641025641027 613,962 C 704.4410256410256,948.4358974358973 819.0666666666666,891.3333333333333 932,885 C 1044.9333333333334,878.6666666666667 1156.1743589743587,923.1025641025643 1279,923 C 1401.8256410256413,922.8974358974357 1536.2358974358974,878.2564102564102 1645,867 C 1753.7641025641026,855.7435897435898 1836.8820512820512,877.8717948717949 1920,900 C 1920,900 1920,1080 1920,1080 Z" fill="#b0afde" opacity="0.49999999999999994"/></svg>